# xmcd
#
# Track frame offsets:
#	150
#	21952
#	39885
#	58000
#	69647
#	93187
#	105807
#	123450
#	135162
#	137770
#	161665
#	185742
#	204835
#
# Disc length: 2976 seconds
#
# Revision: 0
# Processed by: cddbd v1.5.2PL0 Copyright (c) Steve Scherf et al.
# Submitted via: audiograbber 1.83.01
#
DISCID=a60b9e0d
DTITLE=ZZ Top - XXX
DYEAR=1999
DGENRE=Blues Rock
TTITLE0=Poke Chop Sandwich
TTITLE1=Crucifixx A Flatt
TTITLE2=Fearless Boggie
TTITLE3=36-22-36
TTITLE4=Made Into A Movie
TTITLE5=Beatbox
TTITLE6=Trippin'
TTITLE7=Dreadmonboogaloo
TTITLE8=Live Intro By Ross Mitchell (Live)
TTITLE9=Sinpusher (Live)
TTITLE10=(Let Me Be Your) Teddy Bear (Live)
TTITLE11=Hey Mr. Millionaire (Live)
TTITLE12=Belt Buckle (Live)
EXTD=
EXTT0=
EXTT1=
EXTT2=
EXTT3=
EXTT4=
EXTT5=
EXTT6=
EXTT7=
EXTT8=
EXTT9=
EXTT10=
EXTT11=
EXTT12=
PLAYORDER=
